<svg width="131" height="40" viewBox="0 0 131 40" fill="none" xmlns="http://www.w3.org/2000/svg">
<rect x="0.428467" width="130" height="40" rx="4" fill="#E5ECF4"/>
<path fill-rule="evenodd" clip-rule="evenodd" d="M42.9428 30.5356C42.619 30.788 42.1333 30.9142 41.4857 30.9142C41.0285 30.9142 40.6 30.8284 40.2 30.657C39.8 30.4856 39.4523 30.2308 39.1571 29.8927C38.8619 29.5546 38.6285 29.1356 38.4571 28.6356C38.2857 28.1356 38.2 27.5523 38.2 26.8856V24.5427C38.2 23.8951 38.2928 23.3213 38.4785 22.8213C38.6642 22.3213 38.9214 21.8999 39.25 21.557C39.5785 21.2142 39.9714 20.9546 40.4285 20.7784C40.8857 20.6023 41.3904 20.5142 41.9428 20.5142C42.5142 20.5142 43.0238 20.607 43.4714 20.7927C43.919 20.9784 44.3 21.2356 44.6142 21.5642C44.9285 21.8927 45.1666 22.2784 45.3285 22.7213C45.4904 23.1642 45.5714 23.638 45.5714 24.1427V24.3142H43.6857V24.1427C43.6857 23.5427 43.5309 23.088 43.2214 22.7784C42.9119 22.4689 42.4761 22.3142 41.9142 22.3142C41.3809 22.3142 40.9428 22.4927 40.6 22.8499C40.2571 23.207 40.0857 23.8189 40.0857 24.6856V26.7999C40.0857 28.3427 40.7142 29.1142 41.9714 29.1142C42.5333 29.1142 42.9595 28.9642 43.25 28.6642C43.5404 28.3642 43.6857 27.9618 43.6857 27.457H41.2857V25.657H45.5714V30.7142H43.8571V29.5999H43.6C43.4857 29.9713 43.2666 30.2832 42.9428 30.5356ZM51.4408 30.6713C50.9979 30.8332 50.5336 30.9142 50.0479 30.9142C49.5622 30.9142 49.0979 30.8332 48.6551 30.6713C48.2122 30.5094 47.8193 30.2737 47.4765 29.9642C47.1336 29.6546 46.8622 29.2737 46.6622 28.8213C46.4622 28.3689 46.3622 27.8475 46.3622 27.257V27.0856C46.3622 26.5046 46.4622 25.988 46.6622 25.5356C46.8622 25.0832 47.1336 24.6999 47.4765 24.3856C47.8193 24.0713 48.2122 23.8332 48.6551 23.6713C49.0979 23.5094 49.5622 23.4284 50.0479 23.4284C50.5336 23.4284 50.9979 23.5094 51.4408 23.6713C51.8836 23.8332 52.2765 24.0713 52.6193 24.3856C52.9622 24.6999 53.2336 25.0832 53.4336 25.5356C53.6336 25.988 53.7336 26.5046 53.7336 27.0856V27.257C53.7336 27.8475 53.6336 28.3689 53.4336 28.8213C53.2336 29.2737 52.9622 29.6546 52.6193 29.9642C52.2765 30.2737 51.8836 30.5094 51.4408 30.6713ZM50.0479 29.1999C49.7908 29.1999 49.5479 29.157 49.3193 29.0713C49.0908 28.9856 48.8908 28.8618 48.7193 28.6999C48.5479 28.538 48.4122 28.3404 48.3122 28.107C48.2122 27.8737 48.1622 27.6094 48.1622 27.3142V27.0284C48.1622 26.7332 48.2122 26.4689 48.3122 26.2356C48.4122 26.0023 48.5479 25.8046 48.7193 25.6427C48.8908 25.4808 49.0908 25.357 49.3193 25.2713C49.5479 25.1856 49.7908 25.1427 50.0479 25.1427C50.3051 25.1427 50.5479 25.1856 50.7765 25.2713C51.0051 25.357 51.2051 25.4808 51.3765 25.6427C51.5479 25.8046 51.6836 26.0023 51.7836 26.2356C51.8836 26.4689 51.9336 26.7332 51.9336 27.0284V27.3142C51.9336 27.6094 51.8836 27.8737 51.7836 28.107C51.6836 28.3404 51.5479 28.538 51.3765 28.6999C51.2051 28.8618 51.0051 28.9856 50.7765 29.0713C50.5479 29.157 50.3051 29.1999 50.0479 29.1999ZM59.5459 30.6713C59.103 30.8332 58.6387 30.9142 58.153 30.9142C57.6673 30.9142 57.203 30.8332 56.7602 30.6713C56.3173 30.5094 55.9244 30.2737 55.5816 29.9642C55.2387 29.6546 54.9673 29.2737 54.7673 28.8213C54.5673 28.3689 54.4673 27.8475 54.4673 27.257V27.0856C54.4673 26.5046 54.5673 25.988 54.7673 25.5356C54.9673 25.0832 55.2387 24.6999 55.5816 24.3856C55.9244 24.0713 56.3173 23.8332 56.7602 23.6713C57.203 23.5094 57.6673 23.4284 58.153 23.4284C58.6387 23.4284 59.103 23.5094 59.5459 23.6713C59.9887 23.8332 60.3816 24.0713 60.7244 24.3856C61.0673 24.6999 61.3387 25.0832 61.5387 25.5356C61.7387 25.988 61.8387 26.5046 61.8387 27.0856V27.257C61.8387 27.8475 61.7387 28.3689 61.5387 28.8213C61.3387 29.2737 61.0673 29.6546 60.7244 29.9642C60.3816 30.2737 59.9887 30.5094 59.5459 30.6713ZM58.153 29.1999C57.8959 29.1999 57.653 29.157 57.4244 29.0713C57.1959 28.9856 56.9959 28.8618 56.8244 28.6999C56.653 28.538 56.5173 28.3404 56.4173 28.107C56.3173 27.8737 56.2673 27.6094 56.2673 27.3142V27.0284C56.2673 26.7332 56.3173 26.4689 56.4173 26.2356C56.5173 26.0023 56.653 25.8046 56.8244 25.6427C56.9959 25.4808 57.1959 25.357 57.4244 25.2713C57.653 25.1856 57.8959 25.1427 58.153 25.1427C58.4102 25.1427 58.653 25.1856 58.8816 25.2713C59.1102 25.357 59.3102 25.4808 59.4816 25.6427C59.653 25.8046 59.7887 26.0023 59.8887 26.2356C59.9887 26.4689 60.0387 26.7332 60.0387 27.0284V27.3142C60.0387 27.6094 59.9887 27.8737 59.8887 28.107C59.7887 28.3404 59.653 28.538 59.4816 28.6999C59.3102 28.8618 59.1102 28.9856 58.8816 29.0713C58.653 29.157 58.4102 29.1999 58.153 29.1999ZM69.551 33.257C69.3462 33.4665 69.0819 33.5713 68.7581 33.5713H63.9867V31.857H67.6724C67.9295 31.857 68.0581 31.7142 68.0581 31.4284V29.6856H67.801C67.7248 29.8475 67.6319 30.0023 67.5224 30.1499C67.4129 30.2975 67.27 30.4284 67.0938 30.5427C66.9176 30.657 66.7081 30.7475 66.4653 30.8142C66.2224 30.8808 65.9295 30.9142 65.5867 30.9142C65.1486 30.9142 64.7414 30.8356 64.3653 30.6784C63.9891 30.5213 63.6605 30.288 63.3795 29.9784C63.0986 29.6689 62.8795 29.2904 62.7224 28.8427C62.5653 28.3951 62.4867 27.8808 62.4867 27.2999V27.0427C62.4867 26.4713 62.57 25.9618 62.7367 25.5142C62.9034 25.0665 63.1319 24.688 63.4224 24.3784C63.7129 24.0689 64.051 23.8332 64.4367 23.6713C64.8224 23.5094 65.2295 23.4284 65.6581 23.4284C66.2295 23.4284 66.6819 23.5356 67.0153 23.7499C67.3486 23.9642 67.6105 24.2665 67.801 24.657H68.0581V23.6284H69.8581V32.457C69.8581 32.7808 69.7557 33.0475 69.551 33.257ZM66.1724 29.1999C65.6105 29.1999 65.1557 29.0261 64.8081 28.6784C64.4605 28.3308 64.2867 27.857 64.2867 27.257V27.0856C64.2867 26.4856 64.4605 26.0118 64.8081 25.6642C65.1557 25.3165 65.6105 25.1427 66.1724 25.1427C66.7343 25.1427 67.1891 25.3213 67.5367 25.6784C67.8843 26.0356 68.0581 26.5046 68.0581 27.0856V27.257C68.0581 27.838 67.8843 28.307 67.5367 28.6642C67.1891 29.0213 66.7343 29.1999 66.1724 29.1999ZM77.6632 28.9999V30.7142H71.0632V28.9999H73.5489V22.4284H71.1489V20.7142H75.3489V28.9999H77.6632ZM82.5397 30.9142C83.0064 30.9142 83.4136 30.8618 83.7612 30.757C84.1088 30.6523 84.404 30.5189 84.6469 30.357C84.8897 30.1951 85.0874 30.0165 85.2397 29.8213C85.3921 29.6261 85.5112 29.438 85.5969 29.257L84.054 28.3999C83.9493 28.6189 83.7778 28.807 83.5397 28.9642C83.3017 29.1213 82.9588 29.1999 82.5112 29.1999C82.2826 29.1999 82.0659 29.1642 81.8612 29.0927C81.6564 29.0213 81.4755 28.9213 81.3183 28.7927C81.1612 28.6642 81.0374 28.5118 80.9469 28.3356C80.8564 28.1594 80.8064 27.9665 80.7969 27.757H85.9969V26.7999C85.9969 26.4284 85.9302 26.0451 85.7969 25.6499C85.6636 25.2546 85.454 24.8927 85.1683 24.5642C84.8826 24.2356 84.5207 23.9642 84.0826 23.7499C83.6445 23.5356 83.1207 23.4284 82.5112 23.4284C82.0159 23.4284 81.5517 23.5165 81.1183 23.6927C80.685 23.8689 80.3064 24.1142 79.9826 24.4284C79.6588 24.7427 79.404 25.1237 79.2183 25.5713C79.0326 26.0189 78.9397 26.5142 78.9397 27.057V27.1427C78.9397 27.7332 79.0278 28.2618 79.204 28.7284C79.3802 29.1951 79.6278 29.5904 79.9469 29.9142C80.2659 30.238 80.6445 30.4856 81.0826 30.657C81.5207 30.8284 82.0064 30.9142 82.5397 30.9142ZM80.8255 26.2142H84.1683C84.1112 25.8808 83.9326 25.6046 83.6326 25.3856C83.3326 25.1665 82.954 25.057 82.4969 25.057C82.0397 25.057 81.6683 25.1737 81.3826 25.407C81.0969 25.6404 80.9112 25.9094 80.8255 26.2142ZM89.1163 30.7142V26.9427H91.1449C91.6591 26.9427 92.1068 26.857 92.4877 26.6856C92.8687 26.5142 93.1853 26.288 93.4377 26.007C93.6901 25.7261 93.8806 25.407 94.0091 25.0499C94.1377 24.6927 94.202 24.3284 94.202 23.957V23.6142C94.202 23.2523 94.1377 22.8975 94.0091 22.5499C93.8806 22.2023 93.6901 21.8927 93.4377 21.6213C93.1853 21.3499 92.8687 21.1308 92.4877 20.9642C92.1068 20.7975 91.6591 20.7142 91.1449 20.7142H87.2306V30.7142H89.1163ZM89.1163 25.1427H90.9591C91.3782 25.1427 91.7091 25.0284 91.952 24.7999C92.1949 24.5713 92.3163 24.2761 92.3163 23.9142V23.7427C92.3163 23.3808 92.1949 23.0856 91.952 22.857C91.7091 22.6284 91.3782 22.5142 90.9591 22.5142H89.1163V25.1427ZM101.979 30.7142V28.9999H99.6642V20.7142H95.4642V22.4284H97.8642V28.9999H95.3785V30.7142H101.979ZM107.312 30.6356C106.969 30.8213 106.569 30.9142 106.112 30.9142C105.684 30.9142 105.281 30.8332 104.905 30.6713C104.529 30.5094 104.198 30.2713 103.912 29.957C103.626 29.6427 103.4 29.2618 103.234 28.8142C103.067 28.3665 102.984 27.857 102.984 27.2856V27.057C102.984 26.4951 103.065 25.9904 103.226 25.5427C103.388 25.0951 103.607 24.7142 103.884 24.3999C104.16 24.0856 104.481 23.8451 104.848 23.6784C105.215 23.5118 105.607 23.4284 106.026 23.4284C106.531 23.4284 106.938 23.5142 107.248 23.6856C107.557 23.857 107.803 24.1237 107.984 24.4856H108.241V23.6284H110.041V28.5713C110.041 28.857 110.169 28.9999 110.426 28.9999H110.698V30.7142H109.469C109.146 30.7142 108.881 30.6189 108.676 30.4284C108.472 30.238 108.369 29.9904 108.369 29.6856H108.112C107.922 30.1332 107.655 30.4499 107.312 30.6356ZM106.512 29.1999C105.988 29.1999 105.569 29.0261 105.255 28.6784C104.941 28.3308 104.784 27.857 104.784 27.257V27.0856C104.784 26.4856 104.941 26.0118 105.255 25.6642C105.569 25.3165 105.988 25.1427 106.512 25.1427C107.036 25.1427 107.455 25.3165 107.769 25.6642C108.084 26.0118 108.241 26.4856 108.241 27.0856V27.257C108.241 27.857 108.084 28.3308 107.769 28.6784C107.455 29.0261 107.036 29.1999 106.512 29.1999ZM117.924 33.257C117.72 33.4665 117.455 33.5713 117.132 33.5713H112.917V31.857H116.046C116.303 31.857 116.432 31.7142 116.432 31.4284V29.6856H116.174C115.86 30.5046 115.184 30.9142 114.146 30.9142C113.793 30.9142 113.465 30.857 113.16 30.7427C112.855 30.6284 112.589 30.4523 112.36 30.2142C112.132 29.9761 111.953 29.6784 111.824 29.3213C111.696 28.9642 111.632 28.5427 111.632 28.057V23.6284H113.432V27.6856C113.432 28.1904 113.551 28.5832 113.789 28.8642C114.027 29.1451 114.384 29.2856 114.86 29.2856C115.403 29.2856 115.801 29.1118 116.053 28.7642C116.305 28.4165 116.432 27.9427 116.432 27.3427V23.6284H118.232V32.457C118.232 32.7808 118.129 33.0475 117.924 33.257Z" />
<path fill-rule="evenodd" clip-rule="evenodd" d="M56.0457 9.65744C56.1362 9.65744 56.2231 9.63958 56.3064 9.60386C56.3897 9.56815 56.4624 9.52053 56.5243 9.46101C56.5862 9.40148 56.635 9.33005 56.6707 9.24672C56.7064 9.16339 56.7243 9.0741 56.7243 8.97886C56.7243 8.88363 56.7064 8.79434 56.6707 8.71101C56.635 8.62767 56.5862 8.55625 56.5243 8.49672C56.4624 8.4372 56.3897 8.38958 56.3064 8.35386C56.2231 8.31815 56.1362 8.30029 56.0457 8.30029C55.9505 8.30029 55.8624 8.31815 55.7814 8.35386C55.7005 8.38958 55.629 8.4372 55.5671 8.49672C55.5052 8.55625 55.4564 8.62767 55.4207 8.71101C55.385 8.79434 55.3671 8.88363 55.3671 8.97886C55.3671 9.0741 55.385 9.16339 55.4207 9.24672C55.4564 9.33005 55.5052 9.40148 55.5671 9.46101C55.629 9.52053 55.7005 9.56815 55.7814 9.60386C55.8624 9.63958 55.9505 9.65744 56.0457 9.65744ZM40.2569 13.4824C40.095 13.6086 39.8522 13.6717 39.5284 13.6717C39.2998 13.6717 39.0855 13.6289 38.8855 13.5432C38.6855 13.4574 38.5117 13.3301 38.3641 13.161C38.2165 12.992 38.0998 12.7824 38.0141 12.5324C37.9284 12.2824 37.8855 11.9908 37.8855 11.6574V10.486C37.8855 10.1622 37.9319 9.87529 38.0248 9.62529C38.1176 9.37529 38.2462 9.16458 38.4105 8.99315C38.5748 8.82172 38.7712 8.69196 38.9998 8.60386C39.2284 8.51577 39.4807 8.47172 39.7569 8.47172C40.0426 8.47172 40.2974 8.51815 40.5212 8.61101C40.745 8.70386 40.9355 8.83244 41.0926 8.99672C41.2498 9.16101 41.3688 9.35386 41.4498 9.57529C41.5307 9.79672 41.5712 10.0336 41.5712 10.286V10.3717H40.6284V10.286C40.6284 9.98601 40.551 9.75863 40.3962 9.60386C40.2415 9.4491 40.0236 9.37172 39.7426 9.37172C39.476 9.37172 39.2569 9.46101 39.0855 9.63958C38.9141 9.81815 38.8284 10.1241 38.8284 10.5574V11.6146C38.8284 12.386 39.1426 12.7717 39.7712 12.7717C40.0522 12.7717 40.2653 12.6967 40.4105 12.5467C40.5557 12.3967 40.6284 12.1955 40.6284 11.9432H39.4284V11.0432H41.5712V13.5717H40.7141V13.0146H40.5855C40.5284 13.2003 40.4188 13.3562 40.2569 13.4824ZM44.4559 13.5932C44.2821 13.6455 44.0785 13.6717 43.8452 13.6717C43.5785 13.6717 43.3357 13.6289 43.1166 13.5431C42.8976 13.4574 42.7083 13.3336 42.5488 13.1717C42.3892 13.0098 42.2654 12.8122 42.1773 12.5789C42.0892 12.3455 42.0452 12.0812 42.0452 11.786V11.7432C42.0452 11.4717 42.0916 11.2241 42.1845 11.0003C42.2773 10.7765 42.4047 10.586 42.5666 10.4289C42.7285 10.2717 42.9178 10.1491 43.1345 10.061C43.3511 9.97291 43.5833 9.92886 43.8309 9.92886C44.1357 9.92886 44.3976 9.98244 44.6166 10.0896C44.8357 10.1967 45.0166 10.3324 45.1595 10.4967C45.3023 10.661 45.4071 10.842 45.4738 11.0396C45.5404 11.2372 45.5738 11.4289 45.5738 11.6146V12.0932H42.9738C42.9785 12.1979 43.0035 12.2943 43.0488 12.3824C43.094 12.4705 43.1559 12.5467 43.2345 12.611C43.313 12.6753 43.4035 12.7253 43.5059 12.761C43.6083 12.7967 43.7166 12.8146 43.8309 12.8146C44.0547 12.8146 44.2261 12.7753 44.3452 12.6967C44.4642 12.6182 44.55 12.5241 44.6023 12.4146L45.3738 12.8432C45.3309 12.9336 45.2714 13.0277 45.1952 13.1253C45.119 13.2229 45.0202 13.3122 44.8988 13.3931C44.7773 13.4741 44.6297 13.5408 44.4559 13.5932ZM44.6595 11.3217H42.988C43.0309 11.1693 43.1238 11.0348 43.2666 10.9182C43.4095 10.8015 43.5952 10.7432 43.8238 10.7432C44.0523 10.7432 44.2416 10.7979 44.3916 10.9074C44.5416 11.017 44.6309 11.1551 44.6595 11.3217ZM49.2335 12.7146V13.5717H47.7335C47.5716 13.5717 47.4394 13.5193 47.337 13.4146C47.2346 13.3098 47.1835 13.1765 47.1835 13.0146V10.886H46.1335V10.0289H47.1835V8.57172H48.0835V10.0289H49.362V10.886H48.0835V12.5003C48.0835 12.6432 48.1477 12.7146 48.2763 12.7146H49.2335ZM57.5314 12.7146V13.5717H54.4028V12.7146H55.6028V10.886H54.4886V10.0289H56.5028V12.7146H57.5314ZM61.3911 13.5717V12.7146H60.434C60.3054 12.7146 60.2411 12.6432 60.2411 12.5003V10.886H61.5197V10.0289H60.2411V8.57172H59.3411V10.0289H58.2911V10.886H59.3411V13.0146C59.3411 13.1765 59.3923 13.3098 59.4947 13.4146C59.5971 13.5193 59.7292 13.5717 59.8911 13.5717H61.3911ZM68.8212 13.5503C68.5998 13.6312 68.3676 13.6717 68.1248 13.6717C67.8819 13.6717 67.6498 13.6312 67.4284 13.5503C67.2069 13.4693 67.0105 13.3515 66.8391 13.1967C66.6676 13.042 66.5319 12.8515 66.4319 12.6253C66.3319 12.3991 66.2819 12.1384 66.2819 11.8432V11.7574C66.2819 11.467 66.3319 11.2086 66.4319 10.9824C66.5319 10.7562 66.6676 10.5646 66.8391 10.4074C67.0105 10.2503 67.2069 10.1312 67.4284 10.0503C67.6498 9.96934 67.8819 9.92886 68.1248 9.92886C68.3676 9.92886 68.5998 9.96934 68.8212 10.0503C69.0426 10.1312 69.2391 10.2503 69.4105 10.4074C69.5819 10.5646 69.7176 10.7562 69.8176 10.9824C69.9176 11.2086 69.9676 11.467 69.9676 11.7574V11.8432C69.9676 12.1384 69.9176 12.3991 69.8176 12.6253C69.7176 12.8515 69.5819 13.042 69.4105 13.1967C69.2391 13.3515 69.0426 13.4693 68.8212 13.5503ZM68.1248 12.8146C67.9962 12.8146 67.8748 12.7931 67.7605 12.7503C67.6462 12.7074 67.5462 12.6455 67.4605 12.5646C67.3748 12.4836 67.3069 12.3848 67.2569 12.2681C67.2069 12.1515 67.1819 12.0193 67.1819 11.8717V11.7289C67.1819 11.5812 67.2069 11.4491 67.2569 11.3324C67.3069 11.2158 67.3748 11.117 67.4605 11.036C67.5462 10.9551 67.6462 10.8932 67.7605 10.8503C67.8748 10.8074 67.9962 10.786 68.1248 10.786C68.2534 10.786 68.3748 10.8074 68.4891 10.8503C68.6034 10.8932 68.7034 10.9551 68.7891 11.036C68.8748 11.117 68.9426 11.2158 68.9926 11.3324C69.0426 11.4491 69.0676 11.5812 69.0676 11.7289V11.8717C69.0676 12.0193 69.0426 12.1515 68.9926 12.2681C68.9426 12.3848 68.8748 12.4836 68.7891 12.5646C68.7034 12.6455 68.6034 12.7074 68.4891 12.7503C68.3748 12.7931 68.2534 12.8146 68.1248 12.8146ZM71.4488 11.7289V13.5717H70.5488V10.0289H71.4488V10.5574H71.5773C71.6583 10.3574 71.7892 10.2027 71.9702 10.0932C72.1511 9.98363 72.363 9.92886 72.6059 9.92886C72.7773 9.92886 72.938 9.95625 73.0881 10.011C73.238 10.0658 73.3702 10.1503 73.4845 10.2646C73.5988 10.3789 73.688 10.5241 73.7523 10.7003C73.8166 10.8765 73.8488 11.086 73.8488 11.3289V13.5717H72.9488V11.5574C72.9488 11.3051 72.8881 11.1062 72.7666 10.961C72.6452 10.8158 72.4702 10.7431 72.2416 10.7431C71.975 10.7431 71.7761 10.8324 71.6452 11.011C71.5142 11.1896 71.4488 11.4289 71.4488 11.7289Z"/>
<path fill-rule="evenodd" clip-rule="evenodd" d="M12.8228 10.1694C13.3405 9.91976 13.9341 9.94657 14.4321 10.2464L24.3406 16.0164L21.5026 18.8677L12.8228 10.1694ZM11.8569 11.7296C11.8569 11.4641 11.9158 11.2062 12.0253 10.9744L20.7033 19.6708L12.0269 28.3884C11.9162 28.1614 11.8569 27.9073 11.8569 27.6407V11.7296ZM21.5038 20.4728L12.838 29.1798C13.0679 29.2863 13.3126 29.3327 13.5569 29.3327C13.8586 29.3327 14.1596 29.2606 14.4322 29.0967L24.3426 23.318L21.5038 20.4728ZM28.1038 18.2076C28.1072 18.2095 28.111 18.2118 28.1144 18.214C28.626 18.5244 28.9315 19.0674 28.9315 19.6663C28.9315 20.2651 28.626 20.8081 28.1144 21.1189L25.3545 22.7278L22.3028 19.6697L25.3526 16.6055L28.1038 18.2076Z"/>
</svg>
